<svg width="201" height="210" viewBox="0 0 201 210" fill="none" xmlns="http://www.w3.org/2000/svg">
<circle cx="101" cy="101" r="90.5" fill="white"/>
<path d="M58.5623 113.932C56.8103 113.932 55.0703 113.704 53.3423 113.248C51.6143 112.768 50.1503 112.096 48.9503 111.232L51.2183 106.768C52.1783 107.464 53.2943 108.016 54.5663 108.424C55.8383 108.832 57.1223 109.036 58.4183 109.036C59.8823 109.036 61.0343 108.748 61.8743 108.172C62.7143 107.596 63.1343 106.804 63.1343 105.796C63.1343 104.836 62.7623 104.08 62.0183 103.528C61.2743 102.976 60.0743 102.7 58.4183 102.7H55.7543V98.848L62.7743 90.892L63.4223 92.98H50.2103V88.3H67.8503V92.08L60.8663 100.036L57.9143 98.344H59.6063C62.7023 98.344 65.0423 99.04 66.6263 100.432C68.2103 101.824 69.0023 103.612 69.0023 105.796C69.0023 107.212 68.6303 108.544 67.8863 109.792C67.1423 111.016 66.0023 112.012 64.4663 112.78C62.9303 113.548 60.9623 113.932 58.5623 113.932ZM82.495 113.932C80.431 113.932 78.583 113.428 76.951 112.42C75.319 111.388 74.035 109.9 73.099 107.956C72.163 106.012 71.695 103.66 71.695 100.9C71.695 98.14 72.163 95.788 73.099 93.844C74.035 91.9 75.319 90.424 76.951 89.416C78.583 88.384 80.431 87.868 82.495 87.868C84.583 87.868 86.431 88.384 88.039 89.416C89.671 90.424 90.955 91.9 91.891 93.844C92.827 95.788 93.295 98.14 93.295 100.9C93.295 103.66 92.827 106.012 91.891 107.956C90.955 109.9 89.671 111.388 88.039 112.42C86.431 113.428 84.583 113.932 82.495 113.932ZM82.495 109C83.479 109 84.331 108.724 85.051 108.172C85.795 107.62 86.371 106.744 86.779 105.544C87.211 104.344 87.427 102.796 87.427 100.9C87.427 99.004 87.211 97.456 86.779 96.256C86.371 95.056 85.795 94.18 85.051 93.628C84.331 93.076 83.479 92.8 82.495 92.8C81.535 92.8 80.683 93.076 79.939 93.628C79.219 94.18 78.643 95.056 78.211 96.256C77.803 97.456 77.599 99.004 77.599 100.9C77.599 102.796 77.803 104.344 78.211 105.544C78.643 106.744 79.219 107.62 79.939 108.172C80.683 108.724 81.535 109 82.495 109ZM99.4406 100.864C98.4806 100.864 97.6526 100.54 96.9566 99.892C96.2846 99.22 95.9486 98.368 95.9486 97.336C95.9486 96.304 96.2846 95.476 96.9566 94.852C97.6526 94.204 98.4806 93.88 99.4406 93.88C100.425 93.88 101.253 94.204 101.925 94.852C102.597 95.476 102.933 96.304 102.933 97.336C102.933 98.368 102.597 99.22 101.925 99.892C101.253 100.54 100.425 100.864 99.4406 100.864ZM99.4406 113.788C98.4806 113.788 97.6526 113.464 96.9566 112.816C96.2846 112.144 95.9486 111.292 95.9486 110.26C95.9486 109.228 96.2846 108.4 96.9566 107.776C97.6526 107.128 98.4806 106.804 99.4406 106.804C100.425 106.804 101.253 107.128 101.925 107.776C102.597 108.4 102.933 109.228 102.933 110.26C102.933 111.292 102.597 112.144 101.925 112.816C101.253 113.464 100.425 113.788 99.4406 113.788ZM116.35 113.932C114.286 113.932 112.438 113.428 110.806 112.42C109.174 111.388 107.89 109.9 106.954 107.956C106.018 106.012 105.55 103.66 105.55 100.9C105.55 98.14 106.018 95.788 106.954 93.844C107.89 91.9 109.174 90.424 110.806 89.416C112.438 88.384 114.286 87.868 116.35 87.868C118.438 87.868 120.286 88.384 121.894 89.416C123.526 90.424 124.81 91.9 125.746 93.844C126.682 95.788 127.15 98.14 127.15 100.9C127.15 103.66 126.682 106.012 125.746 107.956C124.81 109.9 123.526 111.388 121.894 112.42C120.286 113.428 118.438 113.932 116.35 113.932ZM116.35 109C117.334 109 118.186 108.724 118.906 108.172C119.65 107.62 120.226 106.744 120.634 105.544C121.066 104.344 121.282 102.796 121.282 100.9C121.282 99.004 121.066 97.456 120.634 96.256C120.226 95.056 119.65 94.18 118.906 93.628C118.186 93.076 117.334 92.8 116.35 92.8C115.39 92.8 114.538 93.076 113.794 93.628C113.074 94.18 112.498 95.056 112.066 96.256C111.658 97.456 111.454 99.004 111.454 100.9C111.454 102.796 111.658 104.344 112.066 105.544C112.498 106.744 113.074 107.62 113.794 108.172C114.538 108.724 115.39 109 116.35 109ZM140.784 113.932C138.72 113.932 136.872 113.428 135.24 112.42C133.608 111.388 132.324 109.9 131.388 107.956C130.452 106.012 129.984 103.66 129.984 100.9C129.984 98.14 130.452 95.788 131.388 93.844C132.324 91.9 133.608 90.424 135.24 89.416C136.872 88.384 138.72 87.868 140.784 87.868C142.872 87.868 144.72 88.384 146.328 89.416C147.96 90.424 149.244 91.9 150.18 93.844C151.116 95.788 151.584 98.14 151.584 100.9C151.584 103.66 151.116 106.012 150.18 107.956C149.244 109.9 147.96 111.388 146.328 112.42C144.72 113.428 142.872 113.932 140.784 113.932ZM140.784 109C141.768 109 142.62 108.724 143.34 108.172C144.084 107.62 144.66 106.744 145.068 105.544C145.5 104.344 145.716 102.796 145.716 100.9C145.716 99.004 145.5 97.456 145.068 96.256C144.66 95.056 144.084 94.18 143.34 93.628C142.62 93.076 141.768 92.8 140.784 92.8C139.824 92.8 138.972 93.076 138.228 93.628C137.508 94.18 136.932 95.056 136.5 96.256C136.092 97.456 135.888 99.004 135.888 100.9C135.888 102.796 136.092 104.344 136.5 105.544C136.932 106.744 137.508 107.62 138.228 108.172C138.972 108.724 139.824 109 140.784 109Z" fill="#7AC4D1"/>
<path fill-rule="evenodd" clip-rule="evenodd" d="M100.5 200.5C45.2715 200.5 0.5 155.728 0.5 100.5C0.5 45.2715 45.2715 0.5 100.5 0.5V14.5014C100.333 14.5005 100.167 14.5 100 14.5C52.2274 14.5 13.5 53.2274 13.5 101C13.5 148.773 52.2274 187.5 100 187.5C100.167 187.5 100.333 187.5 100.5 187.499V200.5Z" fill="#496B95"/>
<path fill-rule="evenodd" clip-rule="evenodd" d="M100.5 200.5C155.728 200.5 200.5 155.728 200.5 100.5C200.5 45.2715 155.728 0.5 100.5 0.5V14.5014C100.667 14.5005 100.833 14.5 101 14.5C148.773 14.5 187.5 53.2274 187.5 101C187.5 148.773 148.773 187.5 101 187.5C100.833 187.5 100.667 187.5 100.5 187.499V200.5Z" fill="#3F505D"/>
<circle cx="100.5" cy="195.5" r="14" fill="#7AC4D1"/>
<path fill-rule="evenodd" clip-rule="evenodd" d="M200.5 100.5C200.5 155.728 155.728 200.5 100.5 200.5V187.499C100.667 187.5 100.833 187.5 101 187.5C148.773 187.5 187.5 148.773 187.5 101C187.5 53.2274 148.773 14.5 101 14.5C100.833 14.5 100.667 14.5005 100.5 14.5014V0.5C155.728 0.5 200.5 45.2715 200.5 100.5Z" fill="#7AC4D1"/>
</svg>
